<?xml version="1.0" encoding="utf-8"?><svg version="1.1" id="Layer_1" xmlns="http://www.w3.org/2000/svg" xmlns:xlink="http://www.w3.org/1999/xlink" x="0px" y="0px" viewBox="0 0 87.18 122.88" style="enable-background:new 0 0 87.18 122.88" xml:space="preserve"><g><path d="M24.25,72.89c0.11,4.8,1.18,10.77,2.89,15.6c0.12-0.09,0.26-0.16,0.41-0.21c1.18-0.39,2.3-0.56,3.45-0.55 c1.12,0.01,2.23,0.19,3.43,0.49c0.8,0.2,1.29,1.01,1.09,1.81c-0.2,0.8-1.01,1.29-1.81,1.09c-0.99-0.25-1.88-0.4-2.72-0.41 c-0.81-0.01-1.62,0.12-2.49,0.41c-0.09,0.03-0.18,0.05-0.27,0.06c1.24,2.76,2.67,4.75,4.16,5.24c0.79,0.26,1.22,1.1,0.96,1.89 c-0.26,0.79-1.1,1.22-1.89,0.96c-2.89-0.94-5.3-4.71-7.03-9.5c-1.58-4.37-2.66-9.67-3.03-14.34L19,77.57 c-1.01,0.9-1.72,1.48-2.31,1.97c-1.97,1.62-2.64,2.16-3.63,5.78c-0.16,0.58-0.36,1.31-0.63,2.12c-0.28,0.84-0.61,1.73-1.01,2.54 c-0.52,1.07-1.18,2.08-2,2.84c-0.23,0.21-0.48,0.41-0.73,0.57c1.99,3.42,4.41,6.59,7.17,9.4c3.05,3.1,6.5,5.76,10.25,7.83 c5.59,3.09,8.08,3.28,12.46,3.61c1.32,0.1,2.79,0.21,4.61,0.42c4.22,0.48,8.28,1.21,12.19,2.01c0.33-4.93,2.34-8.03,4.47-11.32 c1.74-2.7,3.58-5.54,4.46-9.72c-0.05-0.2-0.06-0.42-0.02-0.63c-1.02-4.09-2.37-6.32-3.52-8.24c-0.56-0.93-1.08-1.79-1.51-2.72 c-0.38,0.51-0.77,0.97-1.19,1.38c-1.19,1.17-2.55,1.91-4.1,2.16l0,0c-0.13,0.02-0.26,0.04-0.39,0.05v0 c-0.12,0.01-0.25,0.02-0.4,0.03c-0.82,0.04-1.52-0.6-1.56-1.42c-0.04-0.82,0.6-1.52,1.42-1.56c0.06,0,0.14-0.01,0.22-0.02v0l0.01,0 c0.07-0.01,0.15-0.02,0.22-0.03l0,0l0.01,0c0.9-0.15,1.72-0.61,2.47-1.34c0.79-0.77,1.5-1.85,2.14-3.19 c-0.47-3.61,0.13-9.02,2.77-19.14c-0.69-0.17-1.37-0.42-2.05-0.72c-2.32-1.06-4.53-2.9-6.61-5.45c-0.09,0.01-0.19,0.01-0.28,0.02 c-2.41,0.16-4.89-0.04-6.54-0.18c-2.78-0.23-5.21-0.78-7.32-1.65c0.06,1.08-0.06,2.28-0.35,3.64c-0.26,1.19-0.69,2.37-1.3,3.55 c-0.59,1.15-1.35,2.29-2.27,3.42c-0.37,0.45-0.76,0.9-1.18,1.35c0.61,1.65,1.67,3.39,2.89,4.86c1.24,1.49,2.61,2.67,3.77,3.13 c0.78-0.04,1.51,0.05,2.19,0.26c0.8,0.24,1.52,0.63,2.18,1.17c0.64,0.52,0.74,1.46,0.22,2.1c-0.52,0.64-1.46,0.74-2.1,0.22 c-0.35-0.29-0.74-0.5-1.15-0.62c-0.19-0.06-0.4-0.1-0.61-0.12c-0.06,0.16-0.09,0.31-0.11,0.46c-0.04,0.34,0.02,0.69,0.12,1.05 c0.22,0.8-0.25,1.62-1.04,1.84c-0.8,0.22-1.62-0.25-1.84-1.04c-0.19-0.69-0.29-1.4-0.21-2.16c0.03-0.3,0.09-0.59,0.18-0.9 c-1.33-0.78-2.69-2.02-3.89-3.46c-1.13-1.35-2.14-2.92-2.88-4.48c-1.52,1.43-3.16,2.84-4.72,4.18 C25.37,71.92,24.78,72.42,24.25,72.89L24.25,72.89z M22.42,42.01V18.96c0-0.05,0-0.11,0.01-0.16c0.07-3.56-0.33-6.45-1.13-8.76 c-0.81-2.32-2.04-4.03-3.63-5.2c-0.15-0.11-0.3-0.22-0.46-0.32c-0.15-0.1-0.31-0.2-0.48-0.29c-1.18-0.67-2.36-0.99-3.6-1.14 c-1.31-0.15-2.7-0.1-4.18-0.02C8.13,3.12,7.36,3.21,6.75,3.39C6.37,3.5,6.1,3.61,6.03,3.72c-0.06,0.1-0.07,0.25-0.05,0.46 C6.02,4.52,6.17,4.94,6.4,5.43c1.25,1.75,2.3,3.73,3.14,5.93c0.84,2.21,1.48,4.67,1.91,7.36c0.01,0.08,0.02,0.16,0.02,0.23h0v24.98 c2.48-1.83,4.7-2.62,7.03-2.62C19.79,41.32,21.07,41.56,22.42,42.01L22.42,42.01z M8.48,46.55c0-0.04,0-0.08,0-0.11V19.05 c-0.4-2.41-0.98-4.62-1.74-6.62c-0.76-1.99-1.69-3.76-2.81-5.31C3.87,7.04,3.82,6.96,3.77,6.87C3.35,6.03,3.09,5.25,3.01,4.52 c-0.1-0.88,0.05-1.67,0.47-2.36c0.5-0.82,1.37-1.34,2.43-1.65c0.85-0.25,1.85-0.38,2.87-0.43C10.4,0,11.94-0.06,13.46,0.11 c1.6,0.18,3.16,0.62,4.73,1.51c0.21,0.12,0.42,0.25,0.63,0.39c0.21,0.13,0.41,0.28,0.61,0.42c2.07,1.53,3.65,3.71,4.67,6.62 c0.92,2.64,1.38,5.88,1.3,9.81c0,0.03,0,0.06,0,0.1v2.24c0.96-2.95,2.23-5.63,3.89-8.06l-1.26-4.48c-1.16-2.24-0.75-4.23,0.36-5.64 c0.53-0.67,1.24-1.2,2.01-1.53c0.78-0.34,1.63-0.49,2.45-0.42c1.65,0.14,3.16,1.11,3.82,3.15l1.14,2.22 c0.22,0.43,0.34,0.69,0.45,0.91c0.14,0.29,0.15,0.33,1.03,0.15l0,0l0.01,0l0.39-0.08c1.18-0.23,1.6-0.31,1.6-1.31v-1h0.01 c0-0.08,0.01-0.15,0.02-0.23c0.36-2.31,1.88-3.72,3.69-4.29c0.77-0.25,1.58-0.34,2.36-0.28c0.8,0.06,1.58,0.27,2.27,0.62 c1.47,0.76,2.52,2.13,2.53,4.07c0,0.04,0,0.08,0,0.11v2.24c4.41,1.77,7.54,4.25,9.3,7.49c1.54,2.83,2,6.18,1.32,10.08 c1.57,0.07,3,0.25,4.29,0.54c1.8,0.41,3.33,1.03,4.59,1.86c0.54,0.36,1.05,0.78,1.51,1.24c1.05,1.06,1.82,2.37,2.12,3.75 c0.33,1.48,0.13,3.01-0.8,4.42c-0.24,0.36-0.53,0.72-0.88,1.06c-1.24,1.22-3.09,1.97-5.54,2.26c-0.68,0.08-1.41,0.13-2.19,0.14 c1.38,1.02,2.66,2.16,3.74,3.43c2.37,2.79,3.8,6.19,3.37,10.41c-0.06,0.57-0.17,1.11-0.33,1.62c5.28,5.97,9.86,16.42,12.39,27.23 c2.46,10.52,3,21.45,0.39,29.03l-0.02,0.05c-1.29,3.89-3.52,7-6.72,8.85c-2.95,1.71-6.66,2.32-11.13,1.46 c-2.42-0.47-4.81-0.98-7.27-1.51c-5.54-1.2-11.39-2.46-17.48-3.15c-1.07-0.12-2.04-0.21-2.94-0.28c-0.99,2.25-2.61,3.84-4.46,4.73 c-1.38,0.66-2.89,0.92-4.37,0.77c-1.49-0.15-2.95-0.72-4.2-1.72c-0.94-0.75-1.76-1.75-2.39-2.99c-0.88,1.54-2.1,2.71-3.46,3.48 c-1.25,0.71-2.63,1.07-4.01,1.09c-1.39,0.01-2.78-0.33-4.03-1.04c-2.28-1.31-4.1-3.84-4.63-7.67c-0.02-0.11-0.04-0.22-0.04-0.33 v-5.18V98.35l0-0.01c-0.95-1.37-1.84-2.79-2.65-4.25c-0.95-0.14-1.8-0.68-2.55-1.64c-0.66-0.85-1.24-2.05-1.74-3.66 c-0.02-0.06-0.03-0.12-0.05-0.19l0,0c-1.29-7.34-1.99-17.04-0.37-25.84C2.09,56.54,4.4,50.77,8.48,46.55L8.48,46.55z M71.04,58.37 c-1.01,1.03-2.42,1.84-4.3,2.42c-0.96,0.29-1.92,0.46-2.86,0.49c-0.7,2.64-1.25,4.94-1.68,6.96l0.01,0.01 c3.09,7.66,6.92,9.2,10.14,10.49c3.08,1.24,5.69,2.29,7.1,6.73c0.25,0.79-0.19,1.63-0.98,1.88c-0.79,0.25-1.63-0.19-1.88-0.98 c-0.98-3.1-2.99-3.91-5.36-4.86c-3.12-1.26-6.75-2.71-9.93-8.26c-0.97,7,0.31,9.13,2.01,11.96c1.26,2.1,2.73,4.54,3.86,9.05 c1.8,0.89,3.36,2.02,4.7,3.4c1.45,1.49,2.63,3.27,3.55,5.35l3.17,2.18c0.68,0.47,0.85,1.4,0.38,2.08c-0.47,0.68-1.4,0.85-2.08,0.38 l-2.18-1.5l-1.77,3.11c-0.41,0.72-1.32,0.97-2.04,0.56c-0.72-0.41-0.97-1.32-0.56-2.04l2.2-3.87c-0.75-1.62-1.69-3.01-2.82-4.17 c-0.83-0.86-1.77-1.6-2.82-2.22c-1.06,4.01-2.86,6.79-4.58,9.45c-1.96,3.03-3.8,5.88-4.01,10.31c0.88,0.19,1.76,0.38,2.63,0.57 c2.49,0.54,4.93,1.06,7.2,1.5c3.72,0.72,6.74,0.25,9.07-1.11c2.52-1.46,4.31-3.99,5.37-7.2c0.01-0.03,0.02-0.06,0.03-0.08 c2.42-7.02,1.87-17.35-0.47-27.37C79.82,73.64,75.74,64.07,71.04,58.37L71.04,58.37z M36.66,117.08c-3.43-0.3-6-0.75-10.37-2.98 c0.37,2.2,1.28,3.75,2.45,4.68c0.79,0.63,1.69,0.98,2.62,1.08c0.93,0.09,1.9-0.08,2.79-0.51C35.12,118.9,36,118.13,36.66,117.08 L36.66,117.08z M22.88,112.2c-3.32-2.04-6.4-4.51-9.16-7.32c-0.84-0.85-1.64-1.74-2.42-2.65v6.24v5.13 c0.39,2.79,1.62,4.58,3.16,5.45c0.79,0.45,1.65,0.67,2.52,0.66c0.88-0.01,1.76-0.25,2.57-0.7c1.64-0.92,2.96-2.75,3.33-5.41V112.2 L22.88,112.2z M27.65,44.37c0.59,0.12,1.16,0.26,1.71,0.4c0.62,0.17,1.24,0.36,1.85,0.59c0.43,0.16,0.84,0.32,1.23,0.49 c2.26-6.28,5.51-11.27,9.84-14.81c-0.58-2.18-0.41-4.16,0.47-5.84c0.94-1.81,2.68-3.21,5.14-4.1l0,0c0.14-0.05,0.29-0.1,0.45-0.15 c0.79-0.25,1.63,0.18,1.88,0.97c0.25,0.79-0.18,1.63-0.97,1.88c-0.11,0.04-0.23,0.08-0.35,0.12l0,0l-0.01,0 c-1.72,0.62-2.9,1.53-3.49,2.68c-0.38,0.73-0.53,1.58-0.45,2.54c4.12-2.57,9.03-4,14.79-4.21c0.69-3.43,0.36-6.3-0.91-8.65 c-1.41-2.59-4-4.61-7.71-6.12l-0.67-0.1c-0.75-0.11-1.29-0.75-1.29-1.48h0V5.13c0-0.04,0-0.09,0.01-0.13 c-0.02-0.65-0.39-1.13-0.91-1.39c-0.33-0.17-0.71-0.27-1.11-0.3c-0.42-0.03-0.84,0.02-1.23,0.14c-0.77,0.25-1.43,0.83-1.63,1.78 v0.9c0,3.46-1.07,3.67-4.04,4.24l-0.39,0.08l0,0c-3.18,0.63-3.29,0.38-4.32-1.84c-0.12-0.26-0.27-0.57-0.39-0.81l-1.21-2.35 c-0.04-0.08-0.08-0.17-0.1-0.25l0,0c-0.22-0.75-0.71-1.09-1.23-1.14c-0.33-0.03-0.68,0.04-1.01,0.18 c-0.33,0.15-0.63,0.37-0.86,0.66c-0.45,0.57-0.58,1.44,0,2.49c0.06,0.11,0.11,0.23,0.14,0.35l1.49,5.28 c0.13,0.46,0.03,0.92-0.23,1.28l0,0c-2.55,3.51-4.14,7.69-5.12,12.56c-0.96,4.79-1.34,10.27-1.46,16.45 C26.24,43.63,26.93,43.99,27.65,44.37L27.65,44.37z M35.09,47.36c0.52,0.39,0.97,0.82,1.36,1.29c0.74,0.56,1.56,1.04,2.47,1.45 c1.85,0.82,4.08,1.33,6.69,1.55c1.58,0.13,3.94,0.32,6.12,0.18c1.96-0.13,3.76-0.5,4.57-1.4c0.89-1,1.46-2.55,1.8-4.52 c0.36-2.12,0.43-4.66,0.32-7.48c-0.01-0.11-0.01-0.23,0.01-0.35c0.12-0.82,0.87-1.39,1.69-1.27c3.08,0.44,5.62,0.54,7.61,0.31 c1.78-0.21,3.05-0.68,3.8-1.42c0.19-0.19,0.35-0.38,0.48-0.58c0.44-0.67,0.53-1.41,0.38-2.12c-0.18-0.81-0.67-1.62-1.34-2.3 c-0.31-0.31-0.65-0.6-1.03-0.85c-0.96-0.63-2.16-1.11-3.6-1.44c-1.44-0.32-3.1-0.49-4.99-0.51c-0.27,0.1-0.57,0.11-0.87,0.04 c-0.04-0.01-0.07-0.02-0.11-0.03c-6.38,0.12-11.59,1.86-15.73,5.04C40.44,36.22,37.26,41.09,35.09,47.36L35.09,47.36z M28.58,47.67 c-0.57-0.15-1.14-0.29-1.71-0.4l0,0c-0.14-0.03-0.28-0.08-0.42-0.15c-3.23-1.73-5.7-2.81-7.94-2.81c-2.16,0-4.31,1.03-7.05,3.53 c-4.15,3.78-6.45,9.37-7.58,15.47C2.34,71.65,3.01,80.93,4.25,88c0.39,1.21,0.79,2.07,1.22,2.62c0.26,0.34,0.49,0.51,0.68,0.52 c0.46,0.03,0.87-0.18,1.25-0.53c0.51-0.47,0.95-1.17,1.33-1.95c0.35-0.73,0.64-1.47,0.87-2.16c0.24-0.72,0.43-1.42,0.58-1.97 c1.25-4.56,2.1-5.26,4.62-7.32c0.66-0.54,1.43-1.17,2.22-1.88l4.23-3.78c0.95-0.85,1.85-1.63,2.79-2.43c2.78-2.39,5.82-5,7.8-7.43 c0.79-0.97,1.43-1.94,1.93-2.91c0.48-0.93,0.82-1.87,1.03-2.81c0.49-2.27,0.38-3.85-0.33-4.99c-0.05-0.08-0.1-0.16-0.16-0.24 c-0.47-0.38-0.92-0.79-1.33-1.23c-0.73-0.49-1.66-0.93-2.78-1.34C29.67,47.99,29.14,47.82,28.58,47.67L28.58,47.67z M61.45,40.85 c0,2.02-0.13,3.88-0.41,5.53c-0.42,2.51-1.22,4.57-2.52,6.02c-0.73,0.81-1.74,1.37-2.91,1.75c1.45,1.54,2.93,2.67,4.43,3.36 c0.85,0.39,1.72,0.64,2.6,0.73c0.13-0.01,0.26,0,0.39,0.03c0.93,0.05,1.87-0.06,2.83-0.35c1.44-0.44,2.46-1.03,3.12-1.75 c0.61-0.66,0.94-1.48,1.04-2.42c0.34-3.29-0.8-5.98-2.68-8.19C65.77,43.71,63.67,42.16,61.45,40.85L61.45,40.85z"/></g></svg>