<?xml version="1.0" encoding="utf-8"?>
<!-- Svg Vector Icons : http://www.onlinewebfonts.com/icon -->
<!DOCTYPE svg PUBLIC "-//W3C//DTD SVG 1.1//EN" "http://www.w3.org/Graphics/SVG/1.1/DTD/svg11.dtd">
<svg version="1.1" xmlns="http://www.w3.org/2000/svg" xmlns:xlink="http://www.w3.org/1999/xlink" x="0px" y="0px" viewBox="0 0 256 256" enable-background="new 0 0 256 256" xml:space="preserve">
<metadata> Svg Vector Icons : http://www.onlinewebfonts.com/icon </metadata>
<g><g><g><g><path fill="#000000" d="M232.5,98.1c-9-8-19.9-12.1-32.8-12.1H56.3c-12.9,0-23.8,4-32.8,12.1c-9,8-13.5,18-13.5,29.9s4.5,21.9,13.5,29.9c9,8,19.9,12.1,32.8,12.1h143.3c12.9,0,23.8-4,32.8-12.1c9-8,13.5-18,13.5-29.9S241.5,106.1,232.5,98.1z M223.8,150.9c-6.8,6.3-14.8,9.4-24.1,9.4h-70.9V96.1h70.9c9.3,0,17.4,3.1,24.1,9.4c6.8,6.3,10.1,13.8,10.1,22.7C233.9,137.1,230.6,144.6,223.8,150.9z"/></g></g><g></g><g></g><g></g><g></g><g></g><g></g><g></g><g></g><g></g><g></g><g></g><g></g><g></g><g></g><g></g></g></g>
</svg>